<?xml version="1.0" encoding="UTF-8"?>
<!-- Generator: https://ezgif.com/png-to-svg -->
<svg version="1.1" xmlns="http://www.w3.org/2000/svg" width="100" height="100">
<path d="M0 0 C2.97 0.99 5.94 1.98 9 3 C8.46 4.63 7.92 6.25 7.37 7.88 C6.89 9.34 6.4 10.8 5.91 12.26 C4.56 16.32 3.21 20.38 1.85 24.44 C-0.63 31.85 -3.09 39.27 -5.51 46.7 C-5.87 47.81 -6.23 48.92 -6.61 50.07 C-7.27 52.11 -7.93 54.16 -8.59 56.2 C-8.88 57.1 -9.17 57.99 -9.48 58.92 C-9.72 59.69 -9.97 60.46 -10.23 61.25 C-11 63 -11 63 -13 64 C-14.95 63.44 -14.95 63.44 -17.12 62.56 C-18.21 62.13 -18.21 62.13 -19.32 61.69 C-19.87 61.46 -20.43 61.24 -21 61 C-20.46 59.37 -19.92 57.75 -19.37 56.12 C-18.89 54.66 -18.4 53.2 -17.91 51.74 C-16.56 47.68 -15.21 43.62 -13.85 39.56 C-11.38 32.14 -8.91 24.73 -6.46 17.3 C-6.09 16.19 -5.72 15.08 -5.34 13.93 C-4.67 11.89 -3.99 9.84 -3.32 7.8 C-3.03 6.9 -2.73 6.01 -2.43 5.08 C-2.17 4.31 -1.92 3.54 -1.66 2.75 C-1 1 -1 1 0 0 Z " fill="#2096F2" transform="translate(56,18)"/>
<path d="M0 0 C3.26 0.35 4.02 1.02 6.25 3.56 C6.83 4.37 7.41 5.17 8 6 C6.7 7.34 6.7 7.34 5.38 8.7 C4.25 9.88 3.12 11.07 2 12.25 C1.43 12.84 0.86 13.42 0.27 14.03 C-0.28 14.6 -0.82 15.17 -1.38 15.77 C-1.88 16.29 -2.38 16.81 -2.9 17.35 C-4.37 19.22 -4.37 19.22 -4 23 C-2.39 25.02 -2.39 25.02 -0.25 26.88 C3.11 30.05 5.63 33.05 8 37 C5.75 39.56 5.75 39.56 3 42 C-0.47 41.74 -2.06 40.26 -4.35 37.76 C-5.26 36.78 -5.26 36.78 -6.18 35.78 C-7.11 34.74 -7.11 34.74 -8.06 33.69 C-8.69 33.01 -9.31 32.33 -9.96 31.63 C-12.81 28.52 -15.5 25.41 -18 22 C-16.65 19.04 -15.11 16.79 -12.94 14.38 C-12.33 13.69 -11.72 13.01 -11.09 12.3 C-10.4 11.54 -9.71 10.78 -9 10 C-8.19 9.1 -7.38 8.19 -6.54 7.26 C-4.36 4.83 -2.18 2.42 0 0 Z " fill="#3D4FB6" transform="translate(26,29)"/>
<path d="M0 0 C3.03 1.17 4.95 2.74 7.13 5.12 C7.69 5.72 8.25 6.33 8.83 6.96 C9.4 7.59 9.97 8.22 10.56 8.88 C11.43 9.81 11.43 9.81 12.31 10.77 C15.03 13.74 17.67 16.7 20 20 C18.65 22.96 17.11 25.21 14.94 27.62 C14.33 28.31 13.72 28.99 13.09 29.7 C12.4 30.46 11.71 31.22 11 32 C10.19 32.9 9.38 33.81 8.54 34.74 C6.36 37.17 4.18 39.58 2 42 C-2.32 40.6 -3.07 39.9 -6 36 C-1.71 31.38 2.58 26.76 7 22 C4.96 17.91 2.47 15.03 -0.62 11.75 C-1.4 10.92 -1.4 10.92 -2.19 10.07 C-3.45 8.71 -4.73 7.35 -6 6 C-2.25 1.12 -2.25 1.12 0 0 Z " fill="#3E50B4" transform="translate(74,29)"/>
</svg>
